# xmcd CD database file generated by Grip 3.2.0
# 
# Track frame offsets:
#       150
#       1762
#       16630
#       28177
#       39697
#       54592
#       65715
#       77062
#       89580
#       101250
#       117129
#       134900
#       148800
#       161687
#       180487
#       198605
#       210672
#       224607
#       238875
# 
# Disc length: 3270 seconds
# 
# Revision: 2
# Processed by: cddbd v1.5.2PL0 Copyright (c) Steve Scherf et al.
# Submitted via: Grip 3.2.0
# 
DISCID=170cc413
DTITLE=Gerhard Schoene - Alligatoren in der Kanalisation
DYEAR=1900
DGENRE=Blues
TTITLE0=Kollwitz-Platz (Instrumental)
TTITLE1=Alligatoren in der Kanalisation
TTITLE2=Max Motzer aus unserer Strasse
TTITLE3=Toedliches Preisausschreiben
TTITLE4=Das Schiff
TTITLE5=Rattenwurst
TTITLE6=Die raetselhaften schwarzen Opel
TTITLE7=Der Taxifahrer-Engel
TTITLE8=Die unterirdische Stadt
TTITLE9=Schwarzer Rabe
TTITLE10=Die Nachricht
TTITLE11=Metro Moskau-Paris
TTITLE12=Da liecht wer
TTITLE13=Die verschwundene Braut
TTITLE14=In Memoriam Heinz
TTITLE15=Das verwunschene Kino
TTITLE16=Alians
TTITLE17=Kaum zu glauben, aber wahr
TTITLE18=Kudamm (Instrumental)
EXTD=
EXTT0=
EXTT1=
EXTT2=
EXTT3=
EXTT4=
EXTT5=
EXTT6=
EXTT7=
EXTT8=
EXTT9=
EXTT10=
EXTT11=
EXTT12=
EXTT13=
EXTT14=
EXTT15=
EXTT16=
EXTT17=
EXTT18=
PLAYORDER=
